<svg xmlns="http://www.w3.org/2000/svg" version="1.1" xmlns:xlink="http://www.w3.org/1999/xlink" xmlns:svgjs="http://svgjs.dev/svgjs" width="1500" height="1500" viewBox="0 0 1500 1500"><rect width="1500" height="1500" fill="#293040"></rect><g transform="matrix(0.6666666666666666,0,0,0.6666666666666666,249.50000000000006,249.50000000000006)"><svg viewBox="0 0 280 280" data-background-color="#293040" preserveAspectRatio="xMidYMid meet" height="1500" width="1500" xmlns="http://www.w3.org/2000/svg" xmlns:xlink="http://www.w3.org/1999/xlink"><g id="tight-bounds" transform="matrix(1,0,0,1,0.13999999999998636,0.13999999999998636)"><svg viewBox="0 0 279.72 279.72" height="279.72" width="279.72"><g><svg viewBox="0 0 279.72 279.72" height="279.72" width="279.72"><g><svg viewBox="0 0 279.72 279.72" height="279.72" width="279.72"><g id="textblocktransform"><svg viewBox="0 0 279.72 279.72" height="279.72" width="279.72" id="textblock"><g><svg viewBox="0 0 279.72 279.72" height="279.72" width="279.72"><g transform="matrix(1,0,0,1,57.446704652707865,57.446704652707865)"><svg viewBox="0 0 164.8265906945843 164.8265906945843" height="164.8265906945843" width="164.8265906945843"><g id="icon-0"><circle r="82" cx="82.41329534729215" cy="82.41329534729215" fill="#8f6449" data-fill-palette-color="accent"></circle><svg xmlns="http://www.w3.org/2000/svg" xmlns:xlink="http://www.w3.org/1999/xlink" version="1.1" x="24.72398860418764" y="24.723988604187646" viewBox="1.6 1.6 96.7 96.7" enable-background="new 0 0 100 100" xml:space="preserve" height="115.378613486209" width="115.378613486209" class="icon-jxe-0" data-fill-palette-color="quaternary" id="jxe-0"><path d="M98.3 45.7C98.3 43.9 96.9 42.5 95.1 42.5H87.9C86.9 37.4 84.9 32.7 82.1 28.5L87.2 23.4C88.4 22.2 88.4 20.1 87.2 18.9L81.1 12.8C79.9 11.6 77.8 11.6 76.6 12.8L71.5 17.9C67.3 15.1 62.6 13.1 57.5 12.1V4.8C57.5 3 56.1 1.6 54.3 1.6H45.6C43.8 1.6 42.4 3 42.4 4.8V12C37.3 13 32.6 15 28.4 17.8L23.3 12.7C22.1 11.5 20 11.5 18.8 12.7L12.7 18.8C11.5 20 11.5 22.1 12.7 23.3L17.8 28.4C15 32.6 13 37.3 12 42.4H4.8C3 42.4 1.6 43.8 1.6 45.6V54.3C1.6 56.1 3 57.5 4.8 57.5H12C13 62.6 15 67.3 17.8 71.5L12.7 76.6C11.5 77.8 11.5 79.9 12.7 81.1L18.8 87.2C20 88.4 22.1 88.4 23.3 87.2L28.4 82.1C32.6 84.9 37.3 86.9 42.4 87.9V95.1C42.4 96.9 43.8 98.3 45.6 98.3H54.3C56.1 98.3 57.5 96.9 57.5 95.1V87.9C62.6 86.9 67.3 84.9 71.5 82.1L76.6 87.2C77.8 88.4 79.9 88.4 81.1 87.2L87.2 81.1C88.4 79.9 88.4 77.8 87.2 76.6L82.1 71.5C84.9 67.3 86.9 62.6 87.9 57.5H95.1C96.9 57.5 98.3 56.1 98.3 54.3zM50 75.4C36 75.4 24.6 64 24.6 50S36 24.6 50 24.6 75.4 36 75.4 50 64 75.4 50 75.4M60.2 36.6L66.4 42.9 52.1 57.1 45.8 63.3 39.6 57 33.6 51 39.9 44.8 45.9 50.8z" fill="#293040" data-fill-palette-color="quaternary"></path></svg></g></svg></g><g id="text-0"><path d="M13.824 91.642l4.68 8.059 12.655-3.834c1.657-0.441 3.093-0.942 4.309-1.503v0l1.187-2.424c0.397 0.045 0.8 0.182 1.208 0.412v0c-1.255 3.208-2.027 5.202-2.313 5.982v0c-0.589 1.597-1.02 2.896-1.296 3.897v0c-0.411-0.006-0.801-0.139-1.17-0.398v0l0.519-2.824c-0.482 0.047-1.908 0.392-4.278 1.035v0l-9.479 2.687-0.678 1.84 11.066 4.079 1.29-2.495c0.359 0.031 0.758 0.178 1.197 0.441v0c-0.563 1.331-1.139 2.794-1.727 4.391v0c-0.431 1.169-0.958 2.669-1.582 4.499v0c-0.437-0.016-0.826-0.16-1.169-0.431v0l0.609-2.833c-0.793-0.387-2.043-0.894-3.748-1.523v0l-19.057-7.025-1.29 2.495c-0.359-0.031-0.758-0.178-1.197-0.441v0c0.519-1.151 1.104-2.611 1.756-4.38v0c0.582-1.578 1.099-3.081 1.554-4.51v0c0.437 0.016 0.826 0.16 1.168 0.431v0l-0.609 2.833c0.793 0.387 2.043 0.894 3.748 1.523v0l6.343 2.339 0.632-1.715-7.174-11.95-1.294 2.505c-0.359-0.031-0.758-0.178-1.197-0.441v0c0.521-1.157 1.019-2.381 1.495-3.672v0c0.414-1.124 0.844-2.388 1.288-3.791v0c0.439 0.009 0.829 0.153 1.169 0.431v0l-0.415 2.306c0.414 1.277 1.014 2.612 1.8 4.005z" fill="#dee0e4" data-fill-palette-color="primary"></path><path d="M33.487 74.759v0l9.425 5.822 1.9-2.103c0.113 0.038 0.211 0.079 0.296 0.123 0.082 0.035 0.173 0.083 0.271 0.144v0c0.098 0.061 0.199 0.131 0.302 0.21 0.101 0.07 0.205 0.154 0.312 0.253v0c-0.826 1.194-1.636 2.434-2.43 3.72v0c-0.279 0.452-0.61 1-0.991 1.644-0.382 0.644-0.818 1.383-1.309 2.216v0c-0.21-0.049-0.413-0.135-0.61-0.257v0c-0.174-0.107-0.353-0.258-0.537-0.452v0l1.112-2.518c-0.519-0.377-1.084-0.765-1.693-1.165-0.6-0.402-1.253-0.822-1.959-1.259v0l-6.246-3.858c-1.292-0.798-2.268-1.361-2.929-1.69v0l-1.729 2.138c-0.123-0.02-0.304-0.104-0.541-0.251v0c-0.098-0.061-0.194-0.12-0.287-0.177-0.098-0.061-0.196-0.149-0.292-0.265v0c0.744-1.373 1.578-3.182 2.501-5.428v0c0.304-0.052 0.562-0.029 0.773 0.069v0c0.489 0.438 2.043 1.466 4.661 3.084zM20.359 72.578v0c-0.12-0.026-0.232-0.071-0.336-0.136-0.11-0.068-0.214-0.132-0.313-0.193v0c-0.527-0.326-0.817-0.809-0.869-1.449-0.047-0.637 0.129-1.277 0.525-1.92v0c0.376-0.608 0.861-0.992 1.457-1.152 0.601-0.157 1.214-0.042 1.839 0.344v0c0.51 0.315 0.785 0.789 0.826 1.422 0.041 0.633-0.152 1.295-0.577 1.984v0c-0.29 0.469-0.664 0.81-1.124 1.022-0.457 0.222-0.933 0.248-1.428 0.078z" fill="#dee0e4" data-fill-palette-color="primary"></path><path d="M41.073 55.684v0l2.631 2.39c-0.42-1.124-0.625-2.365-0.617-3.722-0.001-1.356 0.3-2.38 0.905-3.072v0c0.47-0.539 0.947-0.962 1.433-1.271v0c0.347 0.058 0.702 0.246 1.066 0.564v0c0.57 0.497 1.037 1.116 1.401 1.858v0c-0.72 0.474-1.329 0.996-1.825 1.565v0c-1.244 1.426-1.573 3.203-0.989 5.33v0l4.516 4.018 3.925 3.423 2.902-2.551c0.335 0.175 0.684 0.479 1.046 0.913v0c-1.009 1.044-2.127 2.268-3.352 3.674v0c-0.922 1.057-2 2.33-3.235 3.819v0c-0.418-0.184-0.757-0.479-1.016-0.886v0l1.507-2.304c-0.892-0.904-1.961-1.899-3.208-2.986v0l-7.119-6.207c-0.349-0.304-0.692-0.558-1.029-0.762v0l-2.054 1.827c-0.324-0.156-0.655-0.445-0.992-0.866v0c0.955-1.272 2.073-2.921 3.352-4.948v0c0.309-0.002 0.559 0.063 0.752 0.194z" fill="#dee0e4" data-fill-palette-color="primary"></path><path d="M65.386 51.312v0c0.733 0.939 1.424 1.47 2.073 1.594 0.649 0.123 1.347-0.106 2.093-0.689v0c0.542-0.423 1.014-1.064 1.415-1.921 0.4-0.848 0.633-1.811 0.697-2.89v0l-3.312-4.241c-1.779 1.571-2.952 3.022-3.518 4.354-0.566 1.332-0.382 2.596 0.552 3.793zM67.591 42.191v0l-1.087-1.392c-1.203-1.54-2.253-2.52-3.152-2.941-0.899-0.421-1.756-0.313-2.571 0.324v0c-0.837 0.654-1.298 1.446-1.384 2.376-0.091 0.935 0.273 2.114 1.093 3.539v0c-0.479 0.581-0.852 0.977-1.121 1.186v0c-0.708 0.553-1.326 0.625-1.853 0.216v0c-0.959-1.229-1.186-2.624-0.678-4.187 0.498-1.563 1.544-2.967 3.137-4.211v0c1.76-1.374 3.288-1.989 4.585-1.844 1.292 0.14 2.661 1.135 4.106 2.985v0l5.99 7.67c0.352 0.451 0.683 0.819 0.992 1.104v0l2.362-1.404c0.279 0.214 0.547 0.557 0.805 1.03v0c-1.246 1.059-2.518 2.256-3.817 3.59v0c-0.258-0.032-0.487-0.142-0.687-0.332v0l-1.601-1.768c-0.163 2.9-1.167 5.07-3.013 6.511v0c-1.143 0.892-2.292 1.263-3.446 1.111-1.155-0.152-2.164-0.78-3.028-1.885v0c-1.303-1.669-1.529-3.518-0.678-5.547 0.847-2.035 2.529-4.078 5.046-6.131z" fill="#dee0e4" data-fill-palette-color="primary"></path><path d="M99.654 27.544l2.834 4.938c1.558 0.443 3.479 0.279 5.762-0.494v0c1.548-0.523 2.558-1.361 3.031-2.512 0.471-1.158 0.496-2.359 0.074-3.604v0c-0.22-0.651-0.46-1.181-0.72-1.589-0.26-0.408-0.663-0.836-1.21-1.283-0.553-0.445-1.319-0.819-2.298-1.12-0.972-0.304-2.197-0.558-3.675-0.762v0c-1.734-0.24-3.169-0.531-4.305-0.873-1.136-0.342-2.051-0.783-2.744-1.325-0.693-0.542-1.221-1.103-1.583-1.685-0.368-0.58-0.712-1.34-1.03-2.281v0c-0.648-1.915-0.383-3.661 0.794-5.238 1.177-1.577 2.814-2.719 4.909-3.428v0c2.592-0.877 5.319-1.069 8.18-0.579v0l2.123 6.278c-0.698 0.38-1.32 0.59-1.867 0.632v0l-2.958-5.306c-1.65-0.29-3.336-0.144-5.058 0.439v0c-1.154 0.39-2.016 1.063-2.584 2.016-0.56 0.958-0.63 2.056-0.212 3.295v0c0.236 0.696 0.465 1.226 0.688 1.589 0.217 0.365 0.59 0.756 1.12 1.174 0.529 0.417 1.286 0.754 2.271 1.01 0.987 0.263 2.269 0.494 3.846 0.694v0c5.428 0.687 8.672 2.597 9.731 5.731v0c0.752 2.225 0.51 4.312-0.728 6.261-1.231 1.947-3.221 3.385-5.968 4.314v0c-2.721 0.92-5.445 1.123-8.17 0.608v0l-2.12-6.269c0.696-0.386 1.318-0.597 1.867-0.631z" fill="#dee0e4" data-fill-palette-color="primary"></path><path d="M125.714 19.419v0c-0.123-1.37-0.038-2.676 0.254-3.919 0.299-1.237 0.785-2.336 1.457-3.298 0.672-0.962 1.521-1.749 2.547-2.361 1.018-0.611 2.192-0.976 3.521-1.095v0c1.302-0.117 2.515 0.034 3.639 0.454 1.124 0.419 2.11 1.041 2.955 1.867 0.846 0.826 1.53 1.821 2.052 2.984 0.522 1.17 0.844 2.44 0.966 3.81v0c0.128 1.424 0.031 2.752-0.289 3.983-0.314 1.224-0.818 2.312-1.512 3.262-0.687 0.95-1.544 1.721-2.571 2.312-1.034 0.592-2.191 0.945-3.473 1.059v0c-1.356 0.121-2.588-0.011-3.695-0.397-1.108-0.386-2.074-0.983-2.898-1.791-0.817-0.802-1.482-1.784-1.997-2.948-0.508-1.171-0.827-2.479-0.956-3.922zM130.162 12.653v0c-0.858 1.485-1.161 3.634-0.909 6.448v0c0.125 1.397 0.367 2.612 0.727 3.647 0.359 1.027 0.796 1.87 1.313 2.527 0.524 0.657 1.109 1.131 1.757 1.421 0.648 0.291 1.342 0.403 2.081 0.337v0c0.705-0.063 1.364-0.296 1.977-0.7 0.606-0.403 1.109-0.974 1.507-1.714 0.399-0.74 0.686-1.647 0.864-2.722 0.183-1.083 0.212-2.322 0.087-3.719v0c-0.125-1.397-0.374-2.615-0.748-3.655-0.367-1.04-0.818-1.888-1.355-2.544-0.53-0.656-1.127-1.133-1.789-1.429-0.663-0.303-1.347-0.423-2.052-0.359v0c-1.424 0.128-2.577 0.949-3.46 2.462z" fill="#dee0e4" data-fill-palette-color="primary"></path><path d="M160.559 6.266v0l-1.989 20.018 2.724 0.783c0.058 0.375 0.013 0.836-0.138 1.382v0c-1.435-0.218-2.909-0.402-4.419-0.552v0c-1.05-0.104-2.539-0.228-4.468-0.372v0c-0.092-0.447-0.048-0.894 0.134-1.341v0l2.75-0.106c0.22-1.251 0.412-2.699 0.575-4.345v0l1.955-19.672-2.781-0.615c-0.061-0.355-0.017-0.792 0.13-1.311v0c1.59 0.042 3.582-0.003 5.975-0.135v0c0.18 0.251 0.269 0.492 0.267 0.724v0c-0.168 0.585-0.406 2.433-0.715 5.542z" fill="#dee0e4" data-fill-palette-color="primary"></path><path d="M190.314 16.812v0l-3.801 12.974c-0.434 1.483-0.706 2.531-0.815 3.145v0l2.519 1.1c-0.038 0.372-0.16 0.79-0.367 1.254v0c-1.626-0.405-3.347-0.743-5.162-1.012v0c-0.113-0.196-0.163-0.438-0.15-0.725v0l0.698-2.998c-1.278 0.924-2.503 1.572-3.677 1.945-1.182 0.377-2.432 0.373-3.752-0.014v0c-1.346-0.394-2.376-1.068-3.089-2.022-0.72-0.956-0.838-2.26-0.354-3.913v0l2.153-7.349c0.737-2.515 1.176-4.135 1.317-4.86v0l-2.519-1.1c0.013-0.358 0.136-0.779 0.37-1.264v0c1.555 0.335 3.52 0.659 5.897 0.972v0c0.137 0.281 0.183 0.536 0.138 0.764v0c-0.279 0.542-1.521 4.577-3.725 12.102v0c-0.452 1.542-0.59 2.693-0.416 3.454 0.174 0.76 0.758 1.286 1.751 1.577v0c1.855 0.543 3.854-0.07 5.997-1.84v0l1.961-6.693c0.729-2.489 1.164-4.096 1.305-4.821v0l-2.518-1.099c0.013-0.358 0.136-0.779 0.37-1.264v0c1.351 0.304 3.261 0.611 5.731 0.923v0c0.137 0.281 0.183 0.536 0.138 0.764z" fill="#dee0e4" data-fill-palette-color="primary"></path><path d="M210.236 20.947v0l-2.262 4.383 4.32 2.229c-0.083 0.264-0.157 0.459-0.222 0.586v0c-0.094 0.181-0.224 0.382-0.392 0.602v0l-4.652-1.584-4.349 8.43c-0.78 1.512-1.195 2.65-1.245 3.414-0.043 0.767 0.232 1.303 0.825 1.609v0c0.532 0.275 1.47 0.491 2.814 0.648v0c0.106 0.284 0.07 0.703-0.107 1.254v0c-0.801 0.054-1.408 0.086-1.819 0.096-0.405 0.013-0.881-0.037-1.428-0.151-0.553-0.117-1.095-0.312-1.627-0.587v0c-1.022-0.528-1.651-1.35-1.887-2.467-0.232-1.123 0.067-2.49 0.897-4.099v0l5.174-10.027-2.006-1.391c0.061-0.221 0.128-0.405 0.203-0.55v0c0.084-0.163 0.221-0.376 0.41-0.639v0c0.628 0.194 1.216 0.271 1.765 0.233 0.552-0.045 1.088-0.224 1.61-0.537 0.528-0.31 0.959-0.604 1.294-0.883 0.335-0.279 0.791-0.695 1.368-1.248v0c0.216 0.027 0.457 0.109 0.723 0.247v0c0.242 0.125 0.44 0.269 0.593 0.432z" fill="#dee0e4" data-fill-palette-color="primary"></path><path d="M223.869 40.99v0l-6.495 8.976 1.959 2.048c-0.046 0.11-0.094 0.205-0.144 0.286-0.041 0.08-0.095 0.166-0.163 0.26v0c-0.068 0.094-0.145 0.189-0.232 0.286-0.077 0.095-0.169 0.193-0.275 0.293v0c-1.131-0.911-2.308-1.809-3.532-2.695v0c-0.43-0.311-0.953-0.681-1.568-1.109-0.615-0.428-1.32-0.917-2.114-1.467v0c0.065-0.205 0.165-0.402 0.3-0.589v0c0.12-0.165 0.283-0.333 0.49-0.503v0l2.43 1.292c0.414-0.49 0.842-1.025 1.286-1.603 0.445-0.569 0.911-1.189 1.398-1.862v0l4.304-5.948c0.89-1.23 1.523-2.163 1.898-2.798v0l-2.005-1.88c0.029-0.122 0.126-0.296 0.289-0.521v0c0.068-0.094 0.134-0.185 0.198-0.273 0.068-0.094 0.163-0.185 0.285-0.273v0c1.315 0.842 3.059 1.806 5.232 2.891v0c0.03 0.307-0.012 0.563-0.126 0.766v0c-0.473 0.456-1.611 1.931-3.415 4.423zM227.001 28.056v0c0.035-0.118 0.088-0.226 0.16-0.325 0.076-0.105 0.148-0.204 0.215-0.298v0c0.363-0.502 0.866-0.756 1.509-0.761 0.639 0 1.264 0.221 1.876 0.664v0c0.579 0.419 0.927 0.931 1.044 1.537 0.113 0.611-0.047 1.214-0.478 1.809v0c-0.351 0.485-0.844 0.725-1.479 0.72-0.635-0.005-1.28-0.246-1.936-0.72v0c-0.447-0.323-0.759-0.722-0.938-1.196-0.188-0.472-0.179-0.949 0.027-1.43z" fill="#dee0e4" data-fill-palette-color="primary"></path><path d="M231.624 52.294v0c0.991-0.954 2.062-1.706 3.214-2.257 1.151-0.541 2.313-0.851 3.484-0.93 1.171-0.079 2.316 0.09 3.435 0.506 1.114 0.411 2.134 1.097 3.059 2.059v0c0.906 0.942 1.549 1.982 1.926 3.12 0.378 1.139 0.51 2.297 0.396 3.474-0.114 1.177-0.461 2.333-1.041 3.469-0.585 1.139-1.373 2.186-2.364 3.139v0c-1.03 0.991-2.125 1.748-3.286 2.27-1.151 0.522-2.314 0.81-3.49 0.865-1.171 0.059-2.309-0.126-3.412-0.556-1.109-0.435-2.109-1.116-3.002-2.043v0c-0.944-0.981-1.613-2.024-2.005-3.129-0.393-1.105-0.533-2.232-0.42-3.381 0.113-1.139 0.462-2.273 1.047-3.403 0.594-1.13 1.414-2.197 2.459-3.203zM239.684 51.524v0c-1.695 0.261-3.56 1.372-5.596 3.33v0c-1.01 0.973-1.806 1.923-2.387 2.851-0.576 0.923-0.959 1.792-1.147 2.606-0.184 0.82-0.186 1.573-0.007 2.261 0.179 0.687 0.526 1.298 1.041 1.832v0c0.491 0.51 1.086 0.878 1.784 1.103 0.694 0.22 1.454 0.254 2.281 0.101 0.826-0.153 1.714-0.497 2.662-1.032 0.959-0.535 1.943-1.289 2.954-2.262v0c1.01-0.973 1.804-1.93 2.38-2.872 0.581-0.937 0.959-1.821 1.134-2.65 0.179-0.825 0.177-1.588-0.007-2.29-0.179-0.706-0.514-1.315-1.005-1.824v0c-0.991-1.03-2.354-1.415-4.087-1.154z" fill="#dee0e4" data-fill-palette-color="primary"></path><path d="M254.439 87.316l5.434-3.207c1.524-0.9 2.473-1.736 2.847-2.51 0.377-0.768 0.285-1.627-0.275-2.576v0c-0.865-1.466-2.834-2.291-5.909-2.478v0l-9.928 5.859 0.977 2.66c-0.268 0.269-0.667 0.504-1.196 0.706v0c-0.672-1.287-1.393-2.581-2.161-3.882v0c-0.54-0.915-1.321-2.192-2.345-3.833v0c0.306-0.339 0.693-0.567 1.161-0.685v0l1.711 2.156c1.139-0.561 2.421-1.262 3.845-2.104v0l8.135-4.8c0.399-0.235 0.748-0.481 1.047-0.737v0l-1.086-2.524c0.251-0.259 0.629-0.482 1.134-0.67v0c0.906 1.307 2.119 2.888 3.64 4.741v0c-0.096 0.294-0.236 0.511-0.422 0.652v0c-0.575 0.205-1.486 0.676-2.735 1.413v0c3.087 0.289 5.208 1.412 6.364 3.37v0c1.813 3.072 1.262 5.468-1.652 7.188v0l-10.579 6.243 0.977 2.66c-0.268 0.269-0.667 0.504-1.196 0.706v0c-0.672-1.287-1.394-2.584-2.166-3.892v0c-0.536-0.909-1.316-2.183-2.34-3.824v0c0.306-0.339 0.693-0.567 1.161-0.685v0l1.711 2.156c1.139-0.561 2.421-1.262 3.846-2.103z" fill="#dee0e4" data-fill-palette-color="primary"></path><path d="M258.169 108.66v0c0.402 1.172 0.973 1.948 1.715 2.327 0.735 0.381 1.46 0.449 2.175 0.205v0c0.419-0.143 0.78-0.339 1.084-0.588 0.304-0.248 0.566-0.575 0.786-0.981 0.227-0.409 0.416-0.906 0.568-1.491 0.152-0.585 0.291-1.302 0.418-2.15v0c0.146-1.043 0.318-1.958 0.516-2.746 0.191-0.785 0.445-1.462 0.761-2.032 0.316-0.569 0.699-1.046 1.151-1.43 0.451-0.385 1.002-0.689 1.652-0.912v0c0.786-0.269 1.514-0.36 2.184-0.273 0.677 0.085 1.292 0.316 1.846 0.695 0.554 0.379 1.045 0.887 1.473 1.524 0.425 0.631 0.782 1.369 1.071 2.213v0c0.583 1.7 0.735 3.497 0.456 5.392v0l-4.173 1.43-0.527-1.536 3.281-1.923c0.128-1.116 0.01-2.206-0.354-3.268v0c-0.611-1.784-1.648-2.425-3.109-1.924v0c-0.779 0.267-1.397 0.806-1.853 1.617-0.45 0.809-0.776 1.978-0.978 3.509v0c-0.153 1.045-0.322 1.978-0.509 2.797-0.18 0.817-0.423 1.527-0.728 2.128-0.305 0.601-0.682 1.108-1.131 1.521-0.457 0.409-1.024 0.729-1.7 0.96v0c-0.76 0.26-1.521 0.338-2.284 0.233-0.767-0.097-1.483-0.359-2.148-0.786-0.673-0.431-1.286-1.013-1.839-1.745-0.559-0.729-1.011-1.596-1.355-2.601v0c-0.662-1.932-0.869-3.89-0.621-5.875v0l4.172-1.43 0.527 1.536-2.981 1.82c-0.123 1.28 0.029 2.541 0.454 3.784z" fill="#dee0e4" data-fill-palette-color="primary"></path><path d="M12.611 147.141c0-1.782 1.444-3.226 3.226-3.226 1.782 0 3.226 1.444 3.226 3.226 0 1.782-1.444 3.226-3.226 3.227-1.782 0-3.226-1.444-3.226-3.227z" fill="#dee0e4" data-fill-palette-color="primary"></path><path d="M269.68 147.141c0-1.782 1.444-3.226 3.227-3.226 1.782 0 3.226 1.444 3.226 3.226 0 1.782-1.444 3.226-3.226 3.227-1.782 0-3.226-1.444-3.227-3.227z" fill="#dee0e4" data-fill-palette-color="primary"></path></g><g id="text-1"><path d="M19.238 182.457v0l6.794-1.981-0.145-0.968c0.124-0.086 0.261-0.126 0.412-0.121v0l0.421 1.59 1.355 4.647-2.663 0.787c-0.082-0.16-0.123-0.301-0.123-0.421v0l1.921-1.146-0.906-3.107-3.451 1.006 0.574 1.822 1.204-0.064c0.067 0.108 0.109 0.252 0.126 0.431v0c-0.441 0.093-0.942 0.222-1.504 0.386v0c-0.51 0.149-1.003 0.307-1.479 0.474v0c-0.086-0.124-0.127-0.264-0.123-0.422v0l1.125-0.594-0.511-1.861-3.941 1.149 1.007 3.451 2.235-0.067c0.067 0.108 0.108 0.249 0.123 0.421v0l-2.669 0.768-1.456-4.989-0.519-1.636c0.13-0.088 0.271-0.129 0.421-0.123v0l0.405 0.914c0.402-0.082 0.857-0.197 1.367-0.345z" fill="#dee0e4" data-fill-palette-color="primary"></path><path d="M24.868 198.167l2.048-0.792c1.035-0.401 1.424-0.931 1.169-1.591v0c-0.221-0.571-0.819-0.957-1.795-1.156v0l-3.799 1.47 0.178 0.971c-0.111 0.072-0.26 0.13-0.447 0.174v0c-0.156-0.48-0.329-0.964-0.519-1.453v0c-0.133-0.343-0.329-0.822-0.588-1.437v0c0.129-0.101 0.275-0.157 0.438-0.169v0l0.466 0.838c0.422-0.134 0.9-0.305 1.434-0.511v0l2.047-0.793c1.035-0.401 1.424-0.931 1.169-1.591v0c-0.13-0.336-0.346-0.592-0.647-0.768-0.301-0.175-0.72-0.313-1.255-0.412v0l-3.714 1.437 0.179 0.971c-0.108 0.078-0.258 0.136-0.448 0.174v0c-0.156-0.48-0.328-0.961-0.514-1.444v0c-0.133-0.343-0.33-0.825-0.593-1.445v0c0.129-0.101 0.275-0.157 0.438-0.17v0l0.467 0.838c0.425-0.128 0.904-0.295 1.437-0.502v0l3.067-1.187c0.146-0.057 0.278-0.122 0.394-0.196v0l-0.228-0.93c0.104-0.07 0.247-0.125 0.428-0.166v0c0.226 0.489 0.549 1.098 0.97 1.826v0c-0.049 0.099-0.107 0.166-0.175 0.199v0c-0.212 0.038-0.552 0.148-1.022 0.33v0c1.041 0.276 1.704 0.782 1.989 1.518v0c0.15 0.387 0.188 0.778 0.114 1.171-0.071 0.4-0.296 0.724-0.675 0.973v0c1.037 0.285 1.696 0.789 1.976 1.513v0c0.174 0.451 0.196 0.902 0.065 1.355-0.134 0.446-0.48 0.777-1.039 0.993v0l-3.981 1.541 0.179 0.971c-0.108 0.078-0.258 0.136-0.448 0.173v0c-0.154-0.473-0.326-0.954-0.514-1.443v0c-0.133-0.343-0.329-0.822-0.589-1.437v0c0.129-0.101 0.275-0.157 0.438-0.169v0l0.463 0.828c0.425-0.128 0.904-0.295 1.437-0.502z" fill="#dee0e4" data-fill-palette-color="primary"></path><path d="M26.316 205.463v0c0.227 0.472 0.638 0.736 1.23 0.79 0.596 0.061 1.36-0.134 2.292-0.583v0c0.711-0.343 1.191-0.736 1.438-1.179 0.247-0.444 0.266-0.884 0.057-1.319v0c-0.304-0.632-0.874-1.03-1.709-1.195v0l-3.358 1.617c-0.265 0.626-0.248 1.249 0.05 1.869zM23.686 203.578l5.253-2.529c0.485-0.233 0.816-0.408 0.994-0.524v0l-0.301-0.909c0.108-0.075 0.246-0.141 0.414-0.199v0c0.273 0.488 0.645 1.072 1.115 1.752v0c-0.029 0.097-0.082 0.168-0.158 0.212v0c-0.269 0.084-0.545 0.194-0.827 0.33v0c0.955 0.258 1.615 0.764 1.978 1.518v0c0.307 0.638 0.3 1.291-0.02 1.959-0.324 0.677-0.918 1.224-1.783 1.641v0c-1 0.481-1.936 0.592-2.809 0.333-0.873-0.26-1.49-0.764-1.85-1.512v0c-0.251-0.521-0.314-1.084-0.19-1.688v0l-2.649 1.275 0.37 1.171c-0.105 0.081-0.249 0.15-0.432 0.208v0c-0.2-0.463-0.433-0.97-0.699-1.522v0c-0.192-0.399-0.44-0.899-0.745-1.5v0c0.12-0.111 0.261-0.179 0.423-0.204v0l0.523 0.802c0.413-0.161 0.878-0.366 1.393-0.614z" fill="#dee0e4" data-fill-palette-color="primary"></path><path d="M30.981 208.564v0c0.422-0.236 0.849-0.393 1.281-0.471 0.438-0.082 0.857-0.086 1.257-0.014 0.397 0.082 0.767 0.241 1.11 0.478 0.334 0.234 0.614 0.553 0.841 0.957v0c0.223 0.398 0.349 0.803 0.377 1.217 0.023 0.416-0.033 0.818-0.167 1.206-0.143 0.385-0.364 0.743-0.663 1.073-0.292 0.328-0.649 0.61-1.071 0.846v0c-0.434 0.243-0.866 0.403-1.299 0.482-0.435 0.072-0.852 0.068-1.249-0.015-0.4-0.088-0.766-0.253-1.097-0.497-0.331-0.243-0.607-0.561-0.827-0.953v0c-0.23-0.41-0.365-0.818-0.405-1.224-0.031-0.404 0.021-0.792 0.156-1.164 0.141-0.375 0.36-0.729 0.658-1.06 0.292-0.328 0.658-0.615 1.098-0.861zM33.764 209.019v0c-0.591-0.067-1.318 0.141-2.179 0.623v0c-0.422 0.236-0.77 0.486-1.044 0.749-0.277 0.257-0.483 0.516-0.617 0.779-0.137 0.256-0.206 0.51-0.206 0.759 0.005 0.247 0.07 0.48 0.193 0.7v0c0.123 0.22 0.288 0.396 0.496 0.529 0.217 0.136 0.472 0.216 0.765 0.239 0.29 0.017 0.619-0.023 0.986-0.12 0.367-0.097 0.762-0.263 1.184-0.499v0c0.428-0.24 0.778-0.491 1.052-0.754 0.28-0.266 0.487-0.53 0.622-0.792 0.134-0.262 0.201-0.518 0.201-0.769 0-0.25-0.061-0.485-0.184-0.704v0c-0.243-0.434-0.666-0.68-1.269-0.74z" fill="#dee0e4" data-fill-palette-color="primary"></path><path d="M41.843 221.044l-6.634 1.494-0.141-0.213 2.788-3.755-4.575 1.069-0.136-0.204 4.002-5.434-0.3-0.708c0.093-0.094 0.226-0.183 0.4-0.266v0c0.222 0.384 0.475 0.788 0.758 1.213v0c0.253 0.38 0.529 0.777 0.828 1.19v0c-0.104 0.126-0.234 0.213-0.391 0.261v0l-0.628-0.686-1.73 2.303c-0.514 0.677-0.894 1.151-1.14 1.42v0l0.011 0.017c0.678-0.222 1.247-0.375 1.706-0.459v0l1.708-0.401 0.718-0.967-0.3-0.709c0.089-0.1 0.222-0.189 0.4-0.266v0c0.222 0.384 0.475 0.788 0.757 1.213v0c0.253 0.38 0.529 0.777 0.829 1.191v0c-0.104 0.126-0.234 0.213-0.391 0.26v0l-0.634-0.695-1.747 2.278c-0.514 0.677-0.894 1.151-1.14 1.421v0l0.012 0.017c0.678-0.222 1.247-0.375 1.705-0.46v0l2.932-0.699-0.438-0.825c0.089-0.1 0.222-0.189 0.399-0.266v0c0.219 0.378 0.435 0.728 0.651 1.052v0c0.181 0.272 0.421 0.615 0.721 1.029v0c-0.104 0.126-0.234 0.213-0.391 0.26v0z" fill="#dee0e4" data-fill-palette-color="primary"></path><path d="M44.001 228.022v0l-2.276-2.989c-1.665 1.173-2.105 2.275-1.322 3.303v0c0.334 0.439 0.869 0.742 1.604 0.91v0c0.016 0.133-0.026 0.281-0.126 0.442v0c-0.821-0.068-1.49-0.44-2.005-1.117v0c-1.179-1.549-0.859-3.016 0.961-4.402v0c0.867-0.66 1.714-0.946 2.542-0.858 0.827 0.098 1.474 0.452 1.94 1.065v0c0.507 0.666 0.642 1.321 0.404 1.963-0.243 0.647-0.736 1.253-1.478 1.818v0c-0.104-0.024-0.185-0.069-0.244-0.135zM44.919 224.642v0c-0.252-0.33-0.637-0.482-1.156-0.455-0.519 0.027-1.064 0.22-1.637 0.579v0l0.903 1.186c0.355 0.466 0.637 0.781 0.848 0.946v0c0.525-0.4 0.888-0.8 1.088-1.201 0.196-0.406 0.18-0.758-0.046-1.055z" fill="#dee0e4" data-fill-palette-color="primary"></path><path d="M48.942 229.22v0l-0.955 0.784c0.408-0.088 0.843-0.096 1.306-0.024 0.463 0.071 0.798 0.229 1.005 0.473v0c0.163 0.192 0.286 0.378 0.367 0.559v0c-0.038 0.113-0.122 0.224-0.252 0.334v0c-0.202 0.172-0.437 0.3-0.705 0.385v0c-0.128-0.266-0.278-0.501-0.449-0.703v0c-0.423-0.498-1.017-0.703-1.783-0.616v0l-1.609 1.339-1.377 1.171 0.719 1.13c-0.077 0.11-0.198 0.213-0.366 0.311v0c-0.305-0.402-0.667-0.849-1.086-1.342v0c-0.313-0.368-0.695-0.803-1.147-1.303v0c0.088-0.138 0.208-0.239 0.358-0.304v0l0.716 0.638c0.359-0.261 0.757-0.576 1.193-0.946v0l2.506-2.129c0.119-0.101 0.222-0.206 0.308-0.315v0l-0.522-0.803c0.076-0.1 0.192-0.199 0.351-0.298v0c0.383 0.398 0.89 0.869 1.522 1.413v0c-0.014 0.11-0.047 0.192-0.1 0.246z" fill="#dee0e4" data-fill-palette-color="primary"></path><path d="M51.38 234.889v0l-2.831 2.609 0.523 0.838c-0.025 0.033-0.046 0.061-0.062 0.084-0.02 0.028-0.046 0.056-0.075 0.083v0c-0.03 0.028-0.062 0.053-0.097 0.076-0.04 0.027-0.079 0.055-0.119 0.082v0c-0.321-0.389-0.66-0.776-1.015-1.162v0c-0.125-0.135-0.277-0.296-0.458-0.481-0.175-0.19-0.383-0.406-0.624-0.647v0c0.041-0.066 0.092-0.126 0.152-0.181v0c0.05-0.046 0.115-0.092 0.194-0.137v0l0.741 0.608c0.174-0.142 0.357-0.296 0.546-0.462 0.194-0.161 0.397-0.338 0.607-0.531v0l1.878-1.73c0.39-0.36 0.669-0.635 0.835-0.826v0l-0.553-0.782c0.021-0.038 0.066-0.089 0.136-0.153v0c0.03-0.028 0.06-0.055 0.09-0.083 0.03-0.028 0.067-0.053 0.112-0.075v0c0.389 0.382 0.915 0.832 1.578 1.351v0c-0.009 0.11-0.039 0.194-0.09 0.249v0c-0.193 0.122-0.682 0.545-1.468 1.27zM53.343 230.705v0c0.011-0.038 0.034-0.073 0.069-0.105 0.03-0.028 0.06-0.055 0.09-0.083v0c0.16-0.148 0.35-0.198 0.57-0.151 0.22 0.038 0.42 0.154 0.6 0.35v0c0.166 0.18 0.247 0.379 0.243 0.595-0.004 0.217-0.099 0.41-0.284 0.581v0c-0.155 0.143-0.34 0.193-0.555 0.151-0.215-0.052-0.417-0.181-0.606-0.386v0c-0.129-0.14-0.209-0.298-0.241-0.472-0.027-0.17 0.011-0.33 0.114-0.48z" fill="#dee0e4" data-fill-palette-color="primary"></path><path d="M54.873 241.753l1.537-1.568c0.429-0.438 0.673-0.803 0.733-1.098 0.055-0.289-0.054-0.568-0.326-0.834v0c-0.423-0.415-1.158-0.516-2.206-0.303v0l-2.802 2.858 0.564 0.811c-0.066 0.116-0.178 0.23-0.336 0.342v0c-0.341-0.372-0.698-0.742-1.072-1.108v0c-0.263-0.257-0.642-0.615-1.137-1.072v0c0.076-0.145 0.185-0.257 0.328-0.335v0l0.772 0.57c0.334-0.292 0.701-0.642 1.101-1.051v0l2.302-2.348c0.11-0.112 0.202-0.226 0.278-0.342v0l-0.592-0.752c0.066-0.107 0.174-0.216 0.321-0.329v0c0.418 0.362 0.966 0.785 1.645 1.269v0c-0.004 0.111-0.029 0.195-0.077 0.254v0c-0.177 0.122-0.442 0.363-0.794 0.723v0c1.062-0.179 1.875 0.008 2.439 0.56v0c0.885 0.867 0.917 1.719 0.097 2.555v0l-2.988 3.048 0.564 0.811c-0.066 0.116-0.178 0.23-0.336 0.342v0c-0.341-0.372-0.698-0.742-1.072-1.108v0c-0.263-0.257-0.642-0.615-1.137-1.072v0c0.076-0.145 0.185-0.257 0.329-0.335v0l0.771 0.57c0.329-0.297 0.694-0.65 1.094-1.058z" fill="#dee0e4" data-fill-palette-color="primary"></path><path d="M56.797 246.552v0c0.029 0.07 0.028 0.16-0.002 0.268v0c-0.338-0.005-0.648 0.155-0.929 0.479v0c-0.25 0.288-0.319 0.633-0.209 1.035 0.116 0.407 0.385 0.793 0.806 1.159v0c0.437 0.379 0.869 0.614 1.296 0.704 0.426 0.09 0.764-0.008 1.014-0.296v0c0.272-0.314 0.416-0.594 0.432-0.842 0.016-0.247-0.135-0.536-0.452-0.865v0l-1.564-1.627c-0.167-0.181-0.237-0.413-0.208-0.694 0.024-0.277 0.107-0.497 0.249-0.662v0l1.472-0.481c-0.134-0.396-0.162-0.785-0.083-1.167 0.083-0.387 0.241-0.714 0.473-0.982v0c0.446-0.514 0.995-0.763 1.648-0.747 0.653 0.016 1.226 0.239 1.72 0.667v0c0.478 0.415 0.791 0.907 0.937 1.475v0c0.744-0.806 1.422-0.97 2.035-0.492v0c0.128 0.174 0.094 0.375-0.102 0.601v0c-0.103 0.118-0.231 0.241-0.386 0.368v0c-0.25-0.19-0.507-0.282-0.773-0.278-0.27 0.01-0.514 0.073-0.732 0.189v0c0.035 0.562-0.144 1.069-0.536 1.522v0c-0.41 0.473-0.947 0.702-1.609 0.686-0.662-0.016-1.25-0.247-1.765-0.692v0c-0.267-0.232-0.478-0.482-0.632-0.751v0l-1.011 0.542 2.066 2.184c0.314 0.344 0.47 0.705 0.468 1.082-0.007 0.372-0.16 0.73-0.46 1.075v0c-0.522 0.602-1.139 0.877-1.852 0.826-0.718-0.055-1.447-0.404-2.188-1.046v0c-0.617-0.535-1-1.065-1.148-1.591-0.148-0.516-0.059-0.961 0.267-1.336v0c0.219-0.252 0.492-0.407 0.821-0.464 0.339-0.058 0.651-0.008 0.937 0.151zM59.91 243.29v0c-0.303 0.35-0.464 0.733-0.483 1.15-0.019 0.416 0.137 0.767 0.466 1.052v0c0.319 0.277 0.688 0.381 1.108 0.312 0.415-0.063 0.777-0.272 1.084-0.627v0c0.339-0.391 0.515-0.801 0.528-1.232 0.022-0.431-0.128-0.787-0.452-1.068v0c-0.309-0.268-0.677-0.362-1.106-0.283-0.433 0.084-0.815 0.316-1.145 0.696z" fill="#dee0e4" data-fill-palette-color="primary"></path><path d="M68.534 247.316l1.624-2.253 6.736 4.819-1.608 2.265c-0.164-0.075-0.286-0.162-0.366-0.262v0l0.803-2.087-2.026-1.45-4.884 6.827 0.917 0.806c-0.049 0.116-0.136 0.237-0.261 0.366v0c-0.394-0.315-0.881-0.681-1.463-1.097v0c-0.448-0.321-0.948-0.67-1.498-1.047v0c0.044-0.144 0.128-0.26 0.249-0.348v0l0.988 0.531c0.206-0.229 0.491-0.599 0.856-1.108v0l4.058-5.672-2.052-1.468-1.716 1.434c-0.119-0.044-0.238-0.129-0.357-0.256z" fill="#dee0e4" data-fill-palette-color="primary"></path><path d="M73.621 255.302v0c0.258-0.409 0.558-0.751 0.901-1.026 0.346-0.281 0.712-0.484 1.098-0.611 0.388-0.117 0.789-0.154 1.204-0.109 0.405 0.046 0.804 0.193 1.195 0.44v0c0.386 0.243 0.69 0.54 0.912 0.889 0.219 0.355 0.361 0.735 0.428 1.14 0.057 0.407 0.034 0.826-0.07 1.259-0.101 0.427-0.28 0.846-0.538 1.255v0c-0.265 0.42-0.569 0.768-0.912 1.042-0.348 0.271-0.716 0.466-1.104 0.583-0.394 0.114-0.794 0.143-1.202 0.087-0.407-0.056-0.801-0.204-1.181-0.443v0c-0.397-0.251-0.711-0.545-0.94-0.883-0.22-0.34-0.36-0.706-0.419-1.097-0.055-0.397-0.031-0.812 0.074-1.246 0.101-0.427 0.285-0.854 0.554-1.28zM76.284 254.374v0c-0.552 0.223-1.091 0.753-1.618 1.587v0c-0.258 0.409-0.445 0.794-0.56 1.156-0.121 0.358-0.178 0.684-0.171 0.979 0.002 0.291 0.062 0.546 0.181 0.766 0.122 0.214 0.29 0.388 0.503 0.523v0c0.213 0.134 0.443 0.211 0.689 0.229 0.255 0.016 0.518-0.036 0.786-0.156 0.263-0.124 0.533-0.316 0.81-0.576 0.277-0.26 0.544-0.594 0.802-1.003v0c0.262-0.415 0.45-0.803 0.566-1.164 0.119-0.367 0.175-0.698 0.167-0.993-0.007-0.294-0.071-0.552-0.189-0.772-0.119-0.22-0.285-0.397-0.498-0.531v0c-0.42-0.265-0.91-0.28-1.468-0.045z" fill="#dee0e4" data-fill-palette-color="primary"></path><path d="M87.582 264.464l1.019-1.945c0.515-0.983 0.458-1.639-0.169-1.967v0c-0.543-0.284-1.247-0.18-2.112 0.312v0l-1.89 3.61 0.775 0.613c-0.036 0.127-0.11 0.269-0.223 0.425v0c-0.434-0.258-0.883-0.508-1.347-0.752v0c-0.326-0.171-0.789-0.401-1.389-0.692v0c0.03-0.161 0.103-0.3 0.218-0.417v0l0.902 0.323c0.229-0.379 0.477-0.822 0.742-1.329v0l1.019-1.945c0.515-0.983 0.458-1.639-0.169-1.967v0c-0.32-0.167-0.651-0.218-0.993-0.151-0.342 0.067-0.747 0.239-1.215 0.517v0l-1.848 3.528 0.775 0.612c-0.03 0.13-0.104 0.272-0.223 0.425v0c-0.434-0.258-0.88-0.507-1.338-0.746v0c-0.326-0.171-0.792-0.403-1.398-0.698v0c0.03-0.161 0.103-0.3 0.218-0.416v0l0.902 0.323c0.235-0.376 0.486-0.818 0.751-1.324v0l1.526-2.913c0.073-0.139 0.128-0.275 0.167-0.408v0l-0.784-0.549c0.033-0.121 0.104-0.257 0.213-0.407v0c0.492 0.219 1.136 0.464 1.932 0.735v0c0.028 0.107 0.028 0.195-0.001 0.265v0c-0.134 0.168-0.318 0.475-0.551 0.921v0c0.965-0.478 1.797-0.534 2.497-0.168v0c0.368 0.193 0.654 0.461 0.857 0.806 0.21 0.348 0.254 0.74 0.133 1.177v0c0.968-0.469 1.796-0.524 2.483-0.164v0c0.428 0.224 0.742 0.55 0.941 0.977 0.193 0.424 0.151 0.901-0.127 1.432v0l-1.98 3.781 0.774 0.613c-0.03 0.13-0.104 0.272-0.222 0.425v0c-0.428-0.255-0.874-0.504-1.338-0.747v0c-0.326-0.171-0.789-0.401-1.39-0.693v0c0.03-0.161 0.103-0.3 0.218-0.416v0l0.894 0.318c0.235-0.376 0.486-0.818 0.751-1.324z" fill="#dee0e4" data-fill-palette-color="primary"></path><path d="M91.306 265.056v0c0.191-0.444 0.434-0.829 0.729-1.153 0.298-0.331 0.628-0.59 0.989-0.776 0.365-0.177 0.756-0.275 1.172-0.296 0.408-0.017 0.824 0.065 1.249 0.248v0c0.419 0.18 0.766 0.425 1.04 0.736 0.271 0.317 0.472 0.67 0.601 1.058 0.12 0.393 0.163 0.811 0.127 1.255-0.033 0.438-0.144 0.879-0.335 1.323v0c-0.196 0.457-0.442 0.847-0.737 1.173-0.302 0.322-0.635 0.572-1 0.748-0.371 0.174-0.762 0.265-1.173 0.274-0.411 0.009-0.823-0.076-1.236-0.253v0c-0.432-0.185-0.787-0.427-1.067-0.726-0.271-0.302-0.465-0.641-0.585-1.018-0.117-0.384-0.157-0.797-0.122-1.242 0.033-0.438 0.148-0.888 0.348-1.351zM93.79 263.723v0c-0.51 0.307-0.96 0.914-1.349 1.821v0c-0.191 0.444-0.315 0.854-0.373 1.229-0.064 0.373-0.069 0.704-0.016 0.994 0.047 0.287 0.146 0.53 0.299 0.728 0.154 0.192 0.347 0.338 0.578 0.438v0c0.231 0.099 0.47 0.139 0.716 0.119 0.255-0.024 0.506-0.116 0.753-0.277 0.241-0.163 0.477-0.395 0.71-0.695 0.233-0.3 0.445-0.672 0.635-1.116v0c0.194-0.45 0.319-0.863 0.377-1.239 0.06-0.382 0.064-0.717 0.01-1.007-0.053-0.29-0.156-0.534-0.307-0.732-0.152-0.199-0.343-0.348-0.575-0.447v0c-0.457-0.196-0.942-0.135-1.458 0.184z" fill="#dee0e4" data-fill-palette-color="primary"></path><path d="M101.612 265.772v0l-0.442 1.154c0.311-0.278 0.686-0.5 1.123-0.667 0.437-0.167 0.806-0.195 1.107-0.085v0c0.237 0.086 0.435 0.188 0.596 0.304v0c0.023 0.117 0.005 0.255-0.053 0.415v0c-0.091 0.249-0.232 0.477-0.423 0.683v0c-0.243-0.168-0.489-0.298-0.739-0.389v0c-0.614-0.224-1.232-0.108-1.854 0.346v0l-0.736 1.96-0.618 1.698 1.184 0.627c-0.012 0.133-0.067 0.283-0.164 0.451v0c-0.464-0.198-1-0.408-1.608-0.629v0c-0.454-0.165-1.001-0.354-1.641-0.565v0c0.009-0.163 0.062-0.311 0.161-0.441v0l0.937 0.2c0.183-0.404 0.373-0.875 0.569-1.412v0l1.126-3.09c0.054-0.147 0.091-0.289 0.112-0.426v0l-0.851-0.44c0.016-0.124 0.069-0.268 0.157-0.432v0c0.53 0.157 1.204 0.315 2.022 0.476v0c0.042 0.102 0.054 0.19 0.035 0.262z" fill="#dee0e4" data-fill-palette-color="primary"></path><path d="M107.168 267.643v0l-0.387 1.173c0.298-0.292 0.662-0.532 1.09-0.719 0.429-0.187 0.796-0.233 1.102-0.137v0c0.24 0.075 0.444 0.167 0.61 0.276v0c0.028 0.116 0.017 0.255-0.034 0.417v0c-0.079 0.253-0.209 0.487-0.391 0.702v0c-0.251-0.157-0.503-0.275-0.756-0.354v0c-0.624-0.195-1.236-0.051-1.836 0.433v0l-0.643 1.992-0.538 1.725 1.212 0.571c-0.006 0.134-0.054 0.286-0.143 0.458v0c-0.473-0.176-1.018-0.36-1.635-0.553v0c-0.461-0.144-1.017-0.307-1.666-0.488v0c0.001-0.164 0.048-0.313 0.14-0.448v0l0.946 0.156c0.164-0.412 0.332-0.891 0.502-1.437v0l0.98-3.139c0.047-0.149 0.077-0.293 0.091-0.431v0l-0.87-0.4c0.011-0.125 0.056-0.271 0.137-0.439v0c0.537 0.132 1.217 0.259 2.042 0.381v0c0.047 0.1 0.063 0.187 0.047 0.261z" fill="#dee0e4" data-fill-palette-color="primary"></path><path d="M109.971 271.831v0c0.12-0.468 0.301-0.886 0.543-1.252 0.243-0.373 0.529-0.679 0.857-0.919 0.333-0.231 0.704-0.389 1.113-0.473 0.4-0.08 0.824-0.063 1.273 0.052v0c0.442 0.113 0.822 0.302 1.14 0.567 0.317 0.271 0.569 0.589 0.757 0.953 0.179 0.369 0.286 0.776 0.32 1.221 0.035 0.438-0.007 0.891-0.128 1.358v0c-0.123 0.481-0.306 0.905-0.547 1.273-0.248 0.365-0.539 0.663-0.873 0.893-0.34 0.229-0.712 0.38-1.117 0.452-0.405 0.072-0.825 0.052-1.26-0.06v0c-0.455-0.117-0.844-0.301-1.166-0.552-0.314-0.256-0.559-0.561-0.735-0.916-0.174-0.361-0.278-0.764-0.312-1.208-0.035-0.438 0.01-0.901 0.135-1.389zM112.221 270.131v0c-0.456 0.382-0.807 1.051-1.053 2.007v0c-0.12 0.468-0.18 0.892-0.179 1.272-0.006 0.378 0.04 0.706 0.138 0.984 0.091 0.276 0.226 0.501 0.407 0.674 0.182 0.166 0.395 0.281 0.639 0.343v0c0.244 0.063 0.486 0.065 0.726 0.007 0.248-0.063 0.482-0.193 0.701-0.389 0.213-0.198 0.411-0.464 0.594-0.797 0.184-0.332 0.336-0.733 0.456-1.201v0c0.122-0.475 0.182-0.902 0.181-1.281 0.001-0.386-0.048-0.719-0.145-0.997-0.097-0.278-0.236-0.503-0.417-0.676-0.181-0.173-0.393-0.291-0.637-0.353v0c-0.481-0.123-0.952 0.012-1.412 0.407z" fill="#dee0e4" data-fill-palette-color="primary"></path><path d="M126.499 272.584l-3.498 5.832-0.251-0.045-0.794-4.609-2.384 4.049-0.241-0.043-1.17-6.646-0.72-0.272c-0.004-0.132 0.023-0.29 0.084-0.473v0c0.431 0.104 0.898 0.2 1.4 0.289v0c0.449 0.079 0.927 0.153 1.434 0.222v0c0.02 0.162-0.008 0.317-0.082 0.463v0l-0.93-0.019 0.473 2.841c0.135 0.84 0.216 1.441 0.242 1.806v0l0.02 0.003c0.307-0.644 0.589-1.161 0.844-1.551v0l0.889-1.513-0.205-1.187-0.72-0.272c-0.011-0.133 0.017-0.291 0.084-0.473v0c0.431 0.104 0.898 0.2 1.401 0.289v0c0.449 0.079 0.927 0.153 1.433 0.222v0c0.02 0.162-0.008 0.317-0.082 0.462v0l-0.94-0.02 0.443 2.836c0.135 0.84 0.216 1.441 0.242 1.805v0l0.02 0.004c0.307-0.644 0.589-1.161 0.844-1.552v0l1.517-2.604-0.899-0.252c-0.011-0.133 0.017-0.291 0.083-0.473v0c0.424 0.103 0.828 0.188 1.21 0.255v0c0.322 0.057 0.736 0.12 1.242 0.188v0c0.02 0.162-0.008 0.317-0.081 0.463v0z" fill="#dee0e4" data-fill-palette-color="primary"></path><path d="M128.972 277.473v0c0.216 0.027 0.387 0.117 0.512 0.27 0.131 0.16 0.184 0.342 0.158 0.544v0c-0.026 0.209-0.123 0.379-0.29 0.51-0.16 0.124-0.344 0.173-0.553 0.147v0c-0.203-0.025-0.369-0.118-0.501-0.279-0.13-0.167-0.182-0.355-0.156-0.565v0c0.025-0.203 0.118-0.366 0.278-0.49 0.165-0.117 0.35-0.162 0.552-0.137zM129.549 272.843v0c0.216 0.027 0.386 0.12 0.511 0.279 0.132 0.154 0.185 0.335 0.158 0.545v0c-0.025 0.203-0.121 0.369-0.288 0.499-0.16 0.131-0.345 0.183-0.555 0.157v0c-0.203-0.025-0.369-0.121-0.499-0.288-0.13-0.167-0.182-0.352-0.157-0.555v0c0.026-0.209 0.119-0.373 0.277-0.49 0.166-0.123 0.351-0.172 0.553-0.147z" fill="#dee0e4" data-fill-palette-color="primary"></path><path d="M138.397 271.975v0l-0.404 7.044 0.961 0.178c0.02 0.124 0.012 0.273-0.026 0.449v0c-0.501-0.056-1.048-0.101-1.639-0.135v0c-0.428-0.025-0.979-0.049-1.652-0.075v0c-0.039-0.145-0.031-0.288 0.024-0.428v0l0.997-0.086c0.052-0.304 0.095-0.768 0.132-1.393v0l0.405-7.055-0.962-0.168c-0.027-0.124-0.018-0.274 0.026-0.448v0c0.44 0.059 0.986 0.108 1.638 0.145v0c0.584 0.034 1.136 0.052 1.654 0.054v0c0.039 0.152 0.031 0.298-0.025 0.438v0l-1.008 0.086c-0.044 0.297-0.085 0.762-0.121 1.394z" fill="#dee0e4" data-fill-palette-color="primary"></path><path d="M145.886 277.582l0.004-2.196c0.001-0.613-0.08-1.045-0.243-1.297-0.163-0.245-0.435-0.368-0.816-0.369v0c-0.592-0.001-1.189 0.44-1.79 1.324v0l-0.007 4.003 0.97 0.186c0.034 0.129 0.033 0.289-0.001 0.479v0c-0.504-0.028-1.018-0.043-1.542-0.043v0c-0.368-0.001-0.888 0.009-1.563 0.027v0c-0.047-0.157-0.047-0.313 0.001-0.469v0l0.95-0.131c0.035-0.442 0.053-0.95 0.054-1.522v0l0.006-3.288c0-0.157-0.013-0.303-0.04-0.439v0l-0.949-0.124c-0.027-0.123-0.027-0.276 0.001-0.46v0c0.551-0.033 1.239-0.113 2.063-0.241v0c0.075 0.082 0.115 0.16 0.122 0.235v0c-0.041 0.211-0.062 0.568-0.063 1.072v0c0.635-0.87 1.347-1.304 2.136-1.303v0c1.239 0.002 1.857 0.589 1.855 1.76v0l-0.008 4.268 0.97 0.186c0.034 0.129 0.033 0.289-0.001 0.48v0c-0.504-0.028-1.018-0.043-1.542-0.044v0c-0.368-0.001-0.888 0.009-1.562 0.028v0c-0.047-0.157-0.047-0.313 0.001-0.47v0l0.95-0.131c0.028-0.442 0.043-0.95 0.044-1.521z" fill="#dee0e4" data-fill-palette-color="primary"></path><path d="M154.382 277.204l-0.14-2.191c-0.039-0.611-0.148-1.038-0.327-1.279-0.179-0.234-0.458-0.339-0.838-0.314v0c-0.591 0.038-1.157 0.517-1.699 1.438v0l0.254 3.995 0.98 0.121c0.042 0.127 0.052 0.287 0.031 0.479v0c-0.504 0.005-1.018 0.024-1.542 0.058v0c-0.367 0.023-0.886 0.067-1.557 0.13v0c-0.058-0.153-0.067-0.309-0.03-0.469v0l0.94-0.193c0.006-0.444-0.009-0.951-0.046-1.522v0l-0.209-3.281c-0.01-0.156-0.033-0.301-0.069-0.436v0l-0.955-0.062c-0.035-0.121-0.045-0.273-0.03-0.458v0c0.548-0.069 1.229-0.194 2.043-0.376v0c0.08 0.077 0.126 0.152 0.137 0.227v0c-0.027 0.213-0.025 0.571 0.007 1.074v0c0.576-0.91 1.259-1.39 2.047-1.441v0c1.236-0.079 1.892 0.466 1.967 1.635v0l0.271 4.26 0.98 0.121c0.042 0.127 0.052 0.287 0.03 0.479v0c-0.504 0.005-1.018 0.024-1.541 0.058v0c-0.367 0.023-0.886 0.067-1.557 0.13v0c-0.058-0.153-0.067-0.309-0.03-0.469v0l0.939-0.193c-0.001-0.443-0.02-0.95-0.056-1.521z" fill="#dee0e4" data-fill-palette-color="primary"></path><path d="M157.904 275.801v0c-0.06-0.48-0.045-0.934 0.045-1.364 0.089-0.437 0.243-0.826 0.46-1.169 0.225-0.337 0.512-0.62 0.861-0.849 0.343-0.221 0.744-0.361 1.203-0.419v0c0.453-0.057 0.876-0.021 1.269 0.108 0.394 0.136 0.746 0.339 1.054 0.609 0.302 0.278 0.551 0.617 0.745 1.018 0.194 0.394 0.321 0.831 0.381 1.31v0c0.062 0.493 0.048 0.955-0.042 1.385-0.097 0.431-0.258 0.815-0.483 1.151-0.232 0.338-0.523 0.615-0.874 0.83-0.35 0.216-0.748 0.351-1.194 0.408v0c-0.466 0.059-0.895 0.03-1.287-0.086-0.386-0.123-0.726-0.317-1.019-0.582-0.295-0.272-0.539-0.608-0.734-1.009-0.194-0.394-0.322-0.841-0.385-1.341zM159.372 273.394v0c-0.284 0.523-0.365 1.274-0.242 2.253v0c0.06 0.48 0.161 0.896 0.301 1.249 0.134 0.354 0.297 0.642 0.489 0.865 0.186 0.224 0.395 0.383 0.626 0.477 0.231 0.088 0.471 0.116 0.721 0.084v0c0.25-0.031 0.476-0.118 0.677-0.26 0.208-0.15 0.377-0.356 0.509-0.62 0.125-0.263 0.212-0.582 0.26-0.959 0.049-0.377 0.043-0.805-0.017-1.284v0c-0.061-0.486-0.162-0.906-0.302-1.259-0.141-0.36-0.308-0.651-0.501-0.873-0.193-0.223-0.405-0.381-0.636-0.476-0.231-0.094-0.472-0.126-0.722-0.095v0c-0.493 0.062-0.881 0.361-1.163 0.898z" fill="#dee0e4" data-fill-palette-color="primary"></path><path d="M170.406 271.15l-1.246 6.704-0.251 0.048-3.626-5.764-0.769 0.002c-0.051-0.122-0.081-0.279-0.09-0.472v0c0.44-0.056 0.91-0.132 1.412-0.228v0c0.448-0.086 0.921-0.186 1.418-0.302v0c0.076 0.145 0.106 0.299 0.088 0.462v0l-0.715 0.282 1.47 2.526c0.423 0.73 0.713 1.264 0.867 1.602v0l0.02-0.004c0.065-0.712 0.148-1.296 0.247-1.752v0l0.476-3.012-0.94 0.086c-0.058-0.121-0.088-0.278-0.09-0.472v0c0.44-0.056 0.854-0.121 1.241-0.195v0c0.334-0.064 0.754-0.154 1.258-0.271v0c0.076 0.145 0.106 0.299 0.088 0.461v0z" fill="#dee0e4" data-fill-palette-color="primary"></path><path d="M174.478 274.564v0c0.1 0.403 0.247 0.668 0.44 0.796 0.186 0.129 0.438 0.154 0.755 0.076v0c0.231-0.057 0.472-0.191 0.722-0.4 0.248-0.216 0.457-0.489 0.627-0.819v0l-0.45-1.814c-0.781 0.243-1.357 0.537-1.727 0.882-0.372 0.338-0.494 0.764-0.367 1.279zM176.469 271.987v0l-0.148-0.595c-0.164-0.661-0.356-1.122-0.575-1.382-0.226-0.26-0.514-0.346-0.864-0.259v0c-0.357 0.089-0.616 0.272-0.778 0.551-0.161 0.285-0.212 0.712-0.156 1.28v0c-0.231 0.114-0.406 0.185-0.525 0.214v0c-0.304 0.075-0.509 0.011-0.617-0.194v0c-0.13-0.522-0.005-0.995 0.374-1.418 0.385-0.425 0.918-0.723 1.599-0.892v0c0.753-0.187 1.323-0.167 1.709 0.06 0.393 0.225 0.687 0.734 0.884 1.527v0l0.814 3.28c0.049 0.198 0.101 0.364 0.156 0.498v0l0.948-0.12c0.063 0.111 0.099 0.259 0.111 0.446v0c-0.542 0.163-1.113 0.361-1.715 0.595v0c-0.074-0.045-0.133-0.111-0.175-0.199v0l-0.259-0.788c-0.459 0.892-1.085 1.437-1.877 1.634v0c-0.489 0.121-0.903 0.077-1.243-0.133-0.346-0.209-0.579-0.551-0.697-1.026v0c-0.177-0.714 0.013-1.332 0.57-1.857 0.557-0.524 1.378-0.931 2.464-1.222z" fill="#dee0e4" data-fill-palette-color="primary"></path><path d="M180.35 266.521v0l0.493 1.643 1.614-0.485c0.047 0.085 0.077 0.151 0.091 0.197v0c0.022 0.072 0.036 0.156 0.044 0.253v0l-1.541 0.729 0.946 3.149c0.17 0.567 0.343 0.953 0.517 1.156 0.175 0.203 0.373 0.272 0.595 0.206v0c0.196-0.059 0.481-0.233 0.856-0.524v0c0.1 0.048 0.191 0.163 0.274 0.344v0c-0.187 0.205-0.33 0.358-0.428 0.459-0.098 0.1-0.23 0.204-0.397 0.311-0.169 0.1-0.351 0.18-0.546 0.239v0c-0.385 0.115-0.742 0.063-1.071-0.158-0.329-0.221-0.585-0.635-0.767-1.241v0l-1.125-3.746-0.834 0.133c-0.037-0.074-0.063-0.138-0.078-0.19v0c-0.018-0.059-0.037-0.145-0.057-0.26v0c0.203-0.104 0.37-0.225 0.499-0.363 0.127-0.145 0.221-0.319 0.28-0.521 0.051-0.207 0.087-0.385 0.107-0.533 0.018-0.155 0.031-0.372 0.039-0.652v0c0.059-0.039 0.138-0.073 0.236-0.102v0c0.091-0.027 0.176-0.042 0.253-0.044z" fill="#dee0e4" data-fill-palette-color="primary"></path><path d="M189.504 268.147v0l-3.547 1.241c0.602 1.946 1.513 2.705 2.734 2.278v0c0.52-0.182 0.974-0.597 1.36-1.244v0c0.132 0.026 0.259 0.111 0.382 0.256v0c-0.318 0.76-0.879 1.281-1.682 1.562v0c-1.838 0.643-3.134-0.115-3.89-2.274v0c-0.36-1.028-0.37-1.922-0.03-2.683 0.348-0.757 0.885-1.262 1.612-1.516v0c0.79-0.277 1.455-0.202 1.992 0.222 0.54 0.431 0.965 1.087 1.273 1.968v0c-0.055 0.091-0.123 0.155-0.204 0.19zM186.572 266.23v0c-0.392 0.137-0.655 0.456-0.79 0.958-0.135 0.501-0.12 1.08 0.046 1.737v0l1.407-0.493c0.553-0.193 0.94-0.365 1.161-0.514v0c-0.218-0.623-0.487-1.092-0.805-1.406-0.325-0.312-0.665-0.406-1.019-0.282z" fill="#dee0e4" data-fill-palette-color="primary"></path><path d="M193.498 272.09v0c-0.172 0.046-0.325-0.017-0.46-0.19v0c0.392-0.471 0.564-0.986 0.517-1.546v0l-0.029 0.011c-0.196 0.078-0.39 0.078-0.582 0.001-0.188-0.086-0.321-0.228-0.399-0.424v0c-0.075-0.19-0.073-0.378 0.007-0.563 0.083-0.179 0.219-0.307 0.409-0.382v0c0.202-0.08 0.4-0.082 0.591-0.005 0.194 0.084 0.334 0.233 0.42 0.449v0c0.191 0.481 0.235 0.932 0.132 1.354-0.099 0.413-0.301 0.845-0.606 1.295z" fill="#dee0e4" data-fill-palette-color="primary"></path><path d="M198.45 259.726v0l3.014 6.379 0.93-0.303c0.077 0.099 0.141 0.235 0.192 0.406v0c-0.467 0.191-0.968 0.412-1.504 0.665v0c-0.388 0.183-0.883 0.425-1.487 0.725v0c-0.104-0.109-0.165-0.238-0.183-0.387v0l0.834-0.553c-0.1-0.292-0.284-0.72-0.551-1.286v0l-3.019-6.389-0.925 0.313c-0.083-0.096-0.147-0.232-0.192-0.407v0c0.415-0.158 0.917-0.377 1.508-0.656v0c0.529-0.25 1.022-0.498 1.478-0.744v0c0.107 0.115 0.17 0.247 0.188 0.397v0l-0.844 0.557c0.103 0.282 0.29 0.71 0.561 1.283z" fill="#dee0e4" data-fill-palette-color="primary"></path><path d="M207.708 261.067l-1.047-1.93c-0.292-0.539-0.57-0.88-0.833-1.023-0.26-0.138-0.558-0.115-0.894 0.066v0c-0.521 0.282-0.833 0.955-0.938 2.019v0l1.908 3.519 0.941-0.301c0.092 0.097 0.168 0.238 0.229 0.422v0c-0.456 0.216-0.914 0.449-1.375 0.699v0c-0.323 0.175-0.776 0.432-1.359 0.772v0c-0.117-0.115-0.191-0.253-0.224-0.413v0l0.772-0.57c-0.181-0.405-0.408-0.859-0.681-1.362v0l-1.567-2.89c-0.075-0.138-0.156-0.26-0.245-0.366v0l-0.894 0.345c-0.082-0.095-0.155-0.229-0.219-0.404v0c0.469-0.293 1.034-0.692 1.697-1.199v0c0.105 0.036 0.178 0.085 0.219 0.148v0c0.065 0.205 0.217 0.529 0.458 0.972v0c0.141-1.068 0.559-1.79 1.253-2.167v0c1.089-0.591 1.913-0.371 2.471 0.658v0l2.034 3.752 0.941-0.3c0.092 0.097 0.168 0.238 0.228 0.422v0c-0.456 0.216-0.914 0.449-1.375 0.699v0c-0.323 0.175-0.776 0.432-1.358 0.771v0c-0.117-0.115-0.191-0.253-0.224-0.413v0l0.771-0.569c-0.187-0.402-0.417-0.854-0.689-1.357z" fill="#dee0e4" data-fill-palette-color="primary"></path><path d="M209.393 253.426v0l0.896 1.463 1.437-0.88c0.067 0.071 0.113 0.126 0.138 0.167v0c0.039 0.064 0.075 0.142 0.107 0.234v0l-1.304 1.097 1.717 2.805c0.309 0.505 0.574 0.834 0.795 0.986 0.221 0.152 0.43 0.168 0.627 0.047v0c0.174-0.107 0.406-0.348 0.695-0.725v0c0.109 0.021 0.226 0.109 0.352 0.263v0c-0.129 0.246-0.227 0.43-0.296 0.553-0.069 0.122-0.171 0.256-0.305 0.402-0.138 0.14-0.294 0.264-0.468 0.37v0c-0.343 0.21-0.701 0.25-1.076 0.12-0.375-0.13-0.727-0.465-1.058-1.005v0l-2.041-3.335-0.773 0.341c-0.054-0.063-0.096-0.117-0.124-0.163v0c-0.032-0.052-0.072-0.131-0.122-0.237v0c0.17-0.152 0.3-0.311 0.39-0.478 0.086-0.172 0.132-0.364 0.139-0.576-0.003-0.214-0.014-0.395-0.033-0.543-0.022-0.154-0.065-0.367-0.128-0.639v0c0.047-0.053 0.115-0.106 0.201-0.16v0c0.081-0.05 0.159-0.085 0.234-0.107z" fill="#dee0e4" data-fill-palette-color="primary"></path><path d="M218.66 252.666v0l-3.114 2.104c1.077 1.728 2.152 2.231 3.224 1.506v0c0.457-0.309 0.79-0.825 0.999-1.549v0c0.134-0.008 0.279 0.042 0.434 0.15v0c-0.114 0.816-0.523 1.463-1.229 1.939v0c-1.613 1.09-3.06 0.687-4.34-1.208v0c-0.61-0.903-0.847-1.765-0.713-2.587 0.144-0.82 0.535-1.446 1.172-1.876v0c0.694-0.469 1.355-0.566 1.984-0.293 0.632 0.279 1.21 0.805 1.732 1.578v0c-0.03 0.102-0.079 0.181-0.149 0.236zM215.337 251.559v0c-0.344 0.232-0.517 0.608-0.52 1.128-0.002 0.519 0.16 1.075 0.486 1.668v0l1.235-0.835c0.485-0.328 0.816-0.592 0.992-0.793v0c-0.37-0.547-0.749-0.932-1.137-1.154-0.394-0.218-0.746-0.223-1.056-0.014z" fill="#dee0e4" data-fill-palette-color="primary"></path><path d="M223.198 253.67v0c0.075-0.014 0.162 0.005 0.262 0.057v0c-0.073 0.33 0.02 0.666 0.28 1.007v0c0.231 0.303 0.555 0.441 0.972 0.414 0.422-0.031 0.855-0.216 1.298-0.555v0c0.46-0.351 0.777-0.726 0.952-1.125 0.175-0.399 0.147-0.75-0.084-1.053v0c-0.252-0.33-0.497-0.528-0.737-0.594-0.239-0.066-0.552 0.023-0.939 0.267v0l-1.909 1.201c-0.211 0.127-0.452 0.148-0.723 0.064-0.266-0.079-0.465-0.206-0.597-0.379v0l-0.173-1.538c-0.415 0.051-0.801-0.001-1.159-0.156-0.362-0.16-0.651-0.381-0.866-0.662v0c-0.413-0.541-0.546-1.129-0.397-1.765 0.148-0.636 0.482-1.152 1.002-1.549v0c0.503-0.384 1.048-0.59 1.634-0.619v0c-0.638-0.892-0.661-1.589-0.069-2.092v0c0.197-0.09 0.386-0.016 0.568 0.221v0c0.095 0.124 0.189 0.275 0.282 0.453v0c-0.236 0.206-0.379 0.44-0.429 0.701-0.045 0.266-0.033 0.518 0.037 0.755v0c0.558 0.08 1.018 0.357 1.381 0.833v0c0.38 0.498 0.495 1.069 0.346 1.715-0.15 0.645-0.495 1.175-1.036 1.588v0c-0.281 0.215-0.569 0.37-0.864 0.467v0l0.326 1.1 2.558-1.581c0.401-0.238 0.786-0.317 1.154-0.238 0.363 0.083 0.683 0.305 0.959 0.667v0c0.483 0.633 0.628 1.293 0.434 1.982-0.2 0.692-0.689 1.335-1.468 1.93v0c-0.649 0.496-1.246 0.763-1.79 0.802-0.535 0.04-0.953-0.137-1.255-0.533v0c-0.202-0.265-0.298-0.565-0.287-0.898 0.012-0.343 0.125-0.639 0.337-0.887zM220.636 249.961v0c0.281 0.368 0.623 0.603 1.027 0.706 0.404 0.103 0.779 0.022 1.125-0.243v0c0.335-0.256 0.512-0.597 0.53-1.021 0.022-0.42-0.109-0.816-0.394-1.19v0c-0.314-0.411-0.68-0.667-1.099-0.766-0.418-0.109-0.797-0.034-1.138 0.226v0c-0.325 0.248-0.492 0.59-0.501 1.026-0.006 0.441 0.144 0.862 0.45 1.262z" fill="#dee0e4" data-fill-palette-color="primary"></path><path d="M225.517 243.48v0l0.783 0.956c-0.087-0.408-0.094-0.843-0.022-1.306 0.072-0.463 0.23-0.797 0.474-1.004v0c0.192-0.163 0.379-0.285 0.559-0.367v0c0.113 0.038 0.224 0.122 0.335 0.253v0c0.172 0.203 0.299 0.438 0.383 0.705v0c-0.267 0.128-0.501 0.277-0.704 0.449v0c-0.499 0.422-0.705 1.016-0.618 1.782v0l1.337 1.61 1.169 1.379 1.131-0.717c0.11 0.077 0.213 0.199 0.311 0.366v0c-0.402 0.305-0.85 0.666-1.344 1.084v0c-0.369 0.312-0.804 0.694-1.304 1.145v0c-0.138-0.089-0.239-0.208-0.304-0.358v0l0.639-0.715c-0.26-0.36-0.575-0.758-0.945-1.194v0l-2.125-2.509c-0.101-0.119-0.206-0.222-0.315-0.308v0l-0.804 0.52c-0.1-0.076-0.199-0.193-0.297-0.351v0c0.399-0.382 0.871-0.889 1.416-1.52v0c0.11 0.014 0.192 0.047 0.245 0.1z" fill="#dee0e4" data-fill-palette-color="primary"></path><path d="M232.486 243.733v0c0.284 0.303 0.542 0.463 0.772 0.479 0.226 0.022 0.458-0.079 0.696-0.303v0c0.174-0.163 0.318-0.397 0.434-0.701 0.111-0.31 0.16-0.65 0.148-1.021v0l-1.279-1.363c-0.563 0.594-0.922 1.131-1.077 1.613-0.16 0.477-0.058 0.908 0.306 1.296zM232.963 240.512v0l-0.419-0.447c-0.466-0.496-0.858-0.805-1.177-0.926-0.324-0.116-0.617-0.051-0.88 0.196v0c-0.268 0.252-0.405 0.539-0.41 0.861-0.001 0.327 0.162 0.725 0.489 1.193v0c-0.146 0.212-0.264 0.36-0.353 0.444v0c-0.228 0.214-0.439 0.258-0.633 0.132v0c-0.368-0.392-0.49-0.866-0.367-1.421 0.129-0.559 0.448-1.079 0.96-1.559v0c0.566-0.531 1.073-0.792 1.52-0.782 0.453 0.005 0.958 0.305 1.517 0.9v0l2.313 2.465c0.14 0.149 0.266 0.269 0.379 0.359v0l0.769-0.568c0.109 0.066 0.213 0.178 0.315 0.335v0c-0.393 0.407-0.795 0.859-1.206 1.356v0c-0.087-0.003-0.17-0.032-0.25-0.088v0l-0.611-0.561c0.036 1.003-0.244 1.784-0.84 2.343v0c-0.367 0.345-0.751 0.508-1.15 0.491-0.404-0.013-0.774-0.198-1.109-0.555v0c-0.503-0.536-0.64-1.169-0.409-1.899 0.23-0.73 0.748-1.486 1.552-2.269z" fill="#dee0e4" data-fill-palette-color="primary"></path><path d="M233.68 233.846v0l1.233 1.193 1.172-1.211c0.083 0.052 0.141 0.094 0.175 0.127v0c0.054 0.052 0.108 0.119 0.162 0.199v0l-0.988 1.389 2.363 2.286c0.426 0.412 0.764 0.664 1.016 0.756 0.252 0.092 0.458 0.055 0.619-0.111v0c0.142-0.147 0.306-0.438 0.492-0.875v0c0.111-0.007 0.246 0.049 0.407 0.167v0c-0.063 0.271-0.113 0.474-0.149 0.609-0.036 0.135-0.101 0.291-0.195 0.465-0.098 0.17-0.218 0.329-0.36 0.475v0c-0.279 0.289-0.617 0.417-1.012 0.385-0.395-0.032-0.82-0.268-1.275-0.708v0l-2.811-2.719-0.663 0.523c-0.068-0.047-0.122-0.089-0.161-0.127v0c-0.044-0.043-0.103-0.109-0.177-0.199v0c0.127-0.19 0.213-0.377 0.258-0.561 0.04-0.188 0.037-0.386-0.009-0.592-0.056-0.206-0.112-0.378-0.168-0.517-0.06-0.143-0.155-0.339-0.284-0.587v0c0.033-0.063 0.084-0.131 0.156-0.205v0c0.066-0.069 0.133-0.123 0.199-0.162z" fill="#dee0e4" data-fill-palette-color="primary"></path><path d="M242.463 230.794v0l-2.489 2.815c1.475 1.404 2.641 1.622 3.498 0.653v0c0.365-0.413 0.558-0.997 0.579-1.75v0c0.128-0.042 0.28-0.029 0.458 0.037v0c0.094 0.819-0.141 1.547-0.704 2.184v0c-1.29 1.459-2.791 1.431-4.505-0.084v0c-0.816-0.721-1.262-1.497-1.337-2.327-0.066-0.83 0.156-1.534 0.666-2.11v0c0.555-0.627 1.17-0.887 1.847-0.779 0.682 0.112 1.373 0.477 2.071 1.095v0c-0.003 0.106-0.031 0.195-0.084 0.266zM238.968 230.553v0c-0.275 0.311-0.349 0.718-0.221 1.222 0.127 0.503 0.423 1.001 0.887 1.493v0l0.988-1.117c0.388-0.439 0.642-0.777 0.762-1.016v0c-0.495-0.437-0.958-0.715-1.39-0.833-0.436-0.113-0.778-0.029-1.026 0.251z" fill="#dee0e4" data-fill-palette-color="primary"></path><path d="M247.874 232.285v0c-0.127 0.125-0.292 0.144-0.495 0.058v0c0.112-0.602 0.011-1.136-0.304-1.602v0l-0.019 0.024c-0.133 0.164-0.302 0.259-0.508 0.285-0.206 0.017-0.391-0.042-0.555-0.175v0c-0.159-0.129-0.248-0.294-0.269-0.495-0.016-0.197 0.041-0.374 0.17-0.533v0c0.137-0.169 0.309-0.267 0.514-0.292 0.211-0.022 0.406 0.04 0.585 0.186v0c0.402 0.326 0.66 0.699 0.777 1.117 0.115 0.409 0.15 0.885 0.104 1.427z" fill="#dee0e4" data-fill-palette-color="primary"></path><path d="M253.952 217.893v0c0.15-0.062 0.334-0.06 0.552 0.008v0c0.225 1.5 0.014 2.722-0.632 3.665v0c-0.443 0.645-0.943 1.128-1.501 1.447-0.567 0.321-1.152 0.506-1.755 0.554-0.601 0.058-1.201-0.007-1.799-0.194-0.596-0.178-1.152-0.444-1.669-0.799v0c-0.516-0.354-0.963-0.793-1.339-1.315-0.376-0.522-0.641-1.088-0.792-1.696-0.158-0.612-0.183-1.249-0.077-1.91 0.105-0.671 0.379-1.329 0.823-1.974v0c0.585-0.853 1.328-1.508 2.227-1.964v0l1.894 1.3c-0.058 0.133-0.12 0.248-0.186 0.343v0c-0.065 0.095-0.133 0.169-0.201 0.221v0l-1.87-0.813c-0.537 0.217-1.037 0.663-1.499 1.337v0c-0.285 0.415-0.446 0.854-0.482 1.316-0.042 0.458 0.016 0.915 0.174 1.37 0.158 0.455 0.411 0.893 0.758 1.314 0.347 0.42 0.763 0.796 1.246 1.127v0c0.522 0.358 1.045 0.631 1.569 0.817 0.523 0.177 1.024 0.265 1.503 0.263 0.474-0.005 0.913-0.104 1.319-0.296 0.399-0.197 0.734-0.491 1.003-0.885v0c0.327-0.477 0.549-0.998 0.664-1.563 0.119-0.571 0.143-1.128 0.07-1.673z" fill="#dee0e4" data-fill-palette-color="primary"></path><path d="M253.838 215.385v0c-0.416-0.245-0.767-0.535-1.053-0.869-0.291-0.337-0.506-0.697-0.644-1.079-0.129-0.384-0.178-0.784-0.146-1.2 0.034-0.407 0.169-0.809 0.404-1.208v0c0.232-0.393 0.519-0.706 0.861-0.939 0.348-0.229 0.724-0.383 1.126-0.462 0.405-0.07 0.825-0.059 1.261 0.032 0.43 0.088 0.854 0.254 1.27 0.5v0c0.428 0.252 0.785 0.545 1.07 0.879 0.282 0.34 0.487 0.702 0.616 1.086 0.126 0.39 0.167 0.79 0.124 1.199-0.043 0.409-0.179 0.807-0.408 1.194v0c-0.238 0.405-0.523 0.727-0.854 0.966-0.333 0.23-0.695 0.381-1.084 0.452-0.395 0.067-0.811 0.055-1.247-0.036-0.43-0.088-0.862-0.259-1.296-0.515zM252.829 212.752v0c0.24 0.545 0.785 1.067 1.636 1.569v0c0.416 0.245 0.807 0.42 1.172 0.524 0.362 0.11 0.689 0.157 0.984 0.142 0.291-0.01 0.544-0.078 0.76-0.204 0.21-0.129 0.379-0.302 0.507-0.519v0c0.128-0.217 0.197-0.449 0.208-0.695 0.009-0.256-0.051-0.516-0.179-0.782-0.132-0.259-0.332-0.523-0.6-0.792-0.268-0.269-0.611-0.526-1.027-0.771v0c-0.422-0.249-0.816-0.426-1.181-0.53-0.371-0.108-0.703-0.154-0.998-0.138-0.294 0.016-0.549 0.087-0.765 0.213-0.216 0.125-0.388 0.297-0.516 0.514v0c-0.252 0.428-0.253 0.918-0.001 1.469z" fill="#dee0e4" data-fill-palette-color="primary"></path><path d="M260.928 204.722l-1.96-0.989c-0.547-0.276-0.97-0.398-1.268-0.365-0.292 0.036-0.524 0.224-0.696 0.564v0c-0.267 0.529-0.14 1.26 0.38 2.194v0l3.575 1.802 0.6-0.784c0.131 0.028 0.274 0.1 0.429 0.216v0c-0.251 0.438-0.495 0.89-0.731 1.359v0c-0.166 0.328-0.391 0.798-0.676 1.409v0c-0.161-0.028-0.301-0.098-0.419-0.212v0l0.309-0.908c-0.38-0.23-0.825-0.473-1.336-0.73v0l-2.936-1.481c-0.14-0.07-0.277-0.124-0.41-0.161v0l-0.537 0.793c-0.122-0.031-0.258-0.1-0.41-0.207v0c0.218-0.508 0.454-1.158 0.71-1.952v0c0.107-0.03 0.195-0.031 0.264-0.004v0c0.17 0.131 0.48 0.311 0.93 0.538v0c-0.493-0.958-0.562-1.789-0.206-2.494v0c0.558-1.106 1.359-1.396 2.405-0.869v0l3.811 1.922 0.601-0.784c0.131 0.028 0.274 0.1 0.429 0.216v0c-0.251 0.438-0.495 0.89-0.731 1.359v0c-0.166 0.328-0.391 0.798-0.676 1.408v0c-0.161-0.028-0.301-0.098-0.42-0.211v0l0.309-0.908c-0.383-0.224-0.83-0.464-1.34-0.721z" fill="#dee0e4" data-fill-palette-color="primary"></path><path d="M262.031 195.517v0c0.095 0.227 0.016 0.623-0.237 1.189v0c-0.976-0.282-1.583-0.148-1.821 0.401v0c-0.187 0.431-0.095 0.905 0.275 1.421 0.37 0.516 0.961 0.95 1.772 1.303v0c0.837 0.363 1.537 0.51 2.101 0.443 0.563-0.067 0.96-0.367 1.19-0.898v0c0.241-0.556 0.252-1.197 0.032-1.922v0c0.111-0.085 0.26-0.121 0.447-0.107v0c0.338 0.777 0.333 1.569-0.016 2.374v0c-0.336 0.775-0.874 1.29-1.617 1.548-0.745 0.263-1.632 0.172-2.663-0.275v0c-0.993-0.43-1.649-1.041-1.966-1.832-0.327-0.787-0.337-1.533-0.031-2.239v0c0.241-0.556 0.591-0.987 1.049-1.292 0.465-0.303 0.96-0.341 1.485-0.113z" fill="#dee0e4" data-fill-palette-color="primary"></path><path d="M263.102 188.146v0l4.415 1.602c0.506 0.183 0.864 0.303 1.076 0.357v0l0.43-0.854c0.129 0.025 0.273 0.077 0.432 0.157v0c-0.174 0.56-0.331 1.151-0.47 1.774v0c-0.07 0.033-0.153 0.042-0.249 0.029v0l-1.02-0.305c0.289 0.46 0.485 0.9 0.586 1.32 0.103 0.414 0.074 0.845-0.089 1.293v0c-0.167 0.461-0.423 0.806-0.767 1.037-0.342 0.224-0.794 0.233-1.357 0.029v0l-2.506-0.909c-0.858-0.311-1.409-0.497-1.655-0.557v0l-0.439 0.851c-0.124-0.016-0.268-0.068-0.432-0.157v0c0.156-0.53 0.314-1.204 0.473-2.023v0c0.102-0.043 0.19-0.054 0.263-0.035v0c0.184 0.11 1.557 0.63 4.116 1.559v0c0.525 0.19 0.922 0.262 1.193 0.215 0.262-0.043 0.454-0.234 0.577-0.573v0c0.227-0.627 0.06-1.333-0.504-2.116v0l-2.275-0.825c-0.851-0.309-1.399-0.496-1.642-0.563v0l-0.439 0.851c-0.127-0.01-0.271-0.062-0.432-0.157v0c0.137-0.457 0.288-1.112 0.452-1.965v0c0.1-0.036 0.188-0.048 0.263-0.035z" fill="#dee0e4" data-fill-palette-color="primary"></path><path d="M264.426 183.993v0l1.177 0.377c-0.295-0.295-0.538-0.656-0.729-1.084-0.191-0.427-0.24-0.794-0.148-1.101v0c0.073-0.241 0.163-0.445 0.27-0.612v0c0.115-0.029 0.255-0.019 0.418 0.03v0c0.254 0.077 0.489 0.205 0.705 0.384v0c-0.154 0.252-0.27 0.505-0.346 0.759v0c-0.189 0.626-0.039 1.236 0.45 1.832v0l1.998 0.624 1.73 0.523 0.56-1.218c0.134 0.005 0.287 0.051 0.459 0.138v0c-0.172 0.474-0.351 1.021-0.538 1.641v0c-0.14 0.463-0.297 1.02-0.472 1.67v0c-0.164 0-0.314-0.045-0.45-0.135v0l0.148-0.948c-0.414-0.16-0.894-0.323-1.442-0.488v0l-3.148-0.95c-0.15-0.045-0.294-0.074-0.432-0.088v0l-0.392 0.874c-0.125-0.009-0.272-0.054-0.44-0.133v0c0.127-0.538 0.247-1.22 0.362-2.045v0c0.1-0.048 0.187-0.065 0.26-0.05z" fill="#dee0e4" data-fill-palette-color="primary"></path></g></svg></g></svg></g></svg></g></svg></g><defs></defs></svg><rect width="279.72" height="279.72" fill="none" stroke="none" visibility="hidden"></rect></g></svg></g></svg>